<svg xmlns="http://www.w3.org/2000/svg" viewBox="0 0 64 64">
  <path fill="#455a64" stroke="#37474f" stroke-linecap="round" stroke-linejoin="round" stroke-miterlimit="10" d="M51 61H13c-2.8 0-5-2.2-5-5V14c0-2.8 2.2-5 5-5h38c2.8 0 5 2.2 5 5v42c0 2.8-2.2 5-5 5z"/>
  <path fill="#78909c" stroke="#37474f" stroke-linecap="round" stroke-linejoin="round" stroke-miterlimit="10" d="M51 57H13c-2.8 0-5-2.2-5-5V10c0-2.8 2.2-5 5-5h38c2.8 0 5 2.2 5 5v42c0 2.8-2.2 5-5 5z"/>
  <path d="M49.5 53h-35c-1.4 0-2.5-1.1-2.5-2.5v-39c0-1.4 1.1-2.5 2.5-2.5h35c1.4 0 2.5 1.1 2.5 2.5v39c0 1.4-1.1 2.5-2.5 2.5z" class="st2"/>
  <path fill="none" stroke="#fff" stroke-linecap="round" stroke-linejoin="round" stroke-miterlimit="10" d="M14 15.5v-4c0-.3.2-.5.5-.5h4"/>
  <path fill="#26c6da" stroke="#37474f" stroke-linecap="round" stroke-linejoin="round" stroke-miterlimit="10" d="M25.5 3C24.1 3 23 4.1 23 5.5v3c0 1.4 1.1 2.5 2.5 2.5h13c1.4 0 2.5-1.1 2.5-2.5v-3C41 4.1 39.9 3 38.5 3h-13z"/>
  <circle cx="32" cy="31" r="14" fill="#ffca28" stroke="#37474f" stroke-linecap="round" stroke-linejoin="round" stroke-miterlimit="10"/>
  <path fill="none" stroke="#ffe082" stroke-linecap="round" stroke-linejoin="round" stroke-miterlimit="10" d="M20 31c0-6.6 5.4-12 12-12"/>
  <path d="M32 34c-.8 0-1.5-.7-1.5-1.5v-8c0-.8.7-1.5 1.5-1.5s1.5.7 1.5 1.5v8c0 .8-.7 1.5-1.5 1.5z" class="st2"/>
  <circle cx="32" cy="37.5" r="1.5" class="st2"/>
</svg>
