<svg xmlns="http://www.w3.org/2000/svg" viewBox="0 0 27 32" style="enable-background:new 0 0 27 32"
    xml:space="preserve">
    <path d="M26 0H1a1 1 0 0 0-1 1v30a1 1 0 0 0 1 1h25a1 1 0 0 0 1-1V1a1 1 0 0 0-1-1zM2 2h3v28H2V2zm23 28H7V2h18v28z" />
    <path
        d="M10 14h3v7a1 1 0 0 0 1 1h4a1 1 0 0 0 1-1v-7h3a1 1 0 0 0 1-1V9a1 1 0 0 0-1-1h-3V5a1 1 0 0 0-1-1h-4a1 1 0 0 0-1 1v3h-3a1 1 0 0 0-1 1v4a1 1 0 0 0 1 1zm1-4h3a1 1 0 0 0 1-1V6h2v3a1 1 0 0 0 1 1h3v2h-3a1 1 0 0 0-1 1v7h-2v-7a1 1 0 0 0-1-1h-3v-2zM21 26h2v2h-2zM18 26h2v2h-2zM9 26h4v2H9z" />
</svg>