<svg xmlns="http://www.w3.org/2000/svg" xml:space="preserve" fill="beige" viewBox="0 0 512.001 512.001">
    <path
        d="M497.207 335.674 372.87 273.506v-48.109l6.674 5.005a16.667 16.667 0 0 0 10.011 3.337c5.077 0 10.088-2.304 13.37-6.679 5.533-7.375 4.033-17.842-3.337-23.375l-126.891-95.169V66.783h16.696c9.217 0 16.696-7.473 16.696-16.696 0-9.223-7.479-16.696-16.696-16.696h-16.696V16.696C272.696 7.473 265.217 0 255.999 0c-9.217 0-16.696 7.473-16.696 16.696v16.696h-16.696c-9.217 0-16.696 7.473-16.696 16.696 0 9.223 7.479 16.696 16.696 16.696h16.696v41.734l-126.891 95.169c-7.369 5.533-8.87 16-3.337 23.375 5.543 7.386 16 8.87 23.381 3.342l6.674-5.005v48.109L14.793 335.674a16.706 16.706 0 0 0-9.228 14.935v144.696c0 9.223 7.479 16.696 16.696 16.696h50.087v-83.478c0-9.223 7.479-16.696 16.696-16.696s16.696 7.473 16.696 16.696V512h116.87V400.696c0-18.413 14.978-33.391 33.391-33.391 18.413 0 33.391 14.978 33.391 33.391V512h116.87v-83.478c0-9.223 7.479-16.696 16.696-16.696 9.217 0 16.696 7.473 16.696 16.696V512h50.087c9.217 0 16.696-7.473 16.696-16.696V350.609a16.714 16.714 0 0 0-9.23-14.935zm-241.208-35.152c-27.619 0-50.087-22.468-50.087-50.087s22.468-50.087 50.087-50.087 50.087 22.468 50.087 50.087c.001 27.619-22.468 50.087-50.087 50.087z" />
</svg>