<svg xmlns="http://www.w3.org/2000/svg" version="1.0" viewBox="0 0 640 640" preserveAspectRatio="xMidYMid meet">
    <g transform="translate(0,1280) scale(0.1,-0.1)" fill="beige" stroke="none">
        <path
            d="M3245 12789 c-433 -66 -834 -309 -1040 -629 -133 -205 -185 -383 -185 -635 -1 -250 59 -454 192 -652 l55 -82 -67 -73 c-37 -40 -105 -101 -151 -135 -46 -34 -90 -72 -97 -83 -7 -11 -17 -18 -23 -15 -14 9 -148 -106 -269 -231 -136 -140 -151 -161 -194 -267 -20 -48 -60 -136 -90 -195 -29 -59 -79 -181 -110 -272 -32 -91 -97 -250 -146 -355 -132 -284 -151 -354 -143 -525 3 -65 -2 -164 -12 -260 -19 -174 -38 -1112 -23 -1142 22 -44 26 -118 15 -240 -9 -111 -9 -136 6 -200 29 -123 52 -465 67 -963 6 -181 21 -521 35 -755 14 -234 30 -517 35 -630 15 -292 15 -1178 0 -1324 -7 -69 -10 -155 -6 -209 10 -126 8 -369 -4 -567 -5 -91 -14 -275 -20 -410 -6 -135 -17 -288 -25 -340 -36 -231 -29 -499 16 -599 10 -24 16 -47 14 -52 -3 -4 8 -52 24 -106 60 -196 83 -396 61 -545 -9 -66 -16 -88 -28 -92 -10 -2 -29 -7 -44 -10 -43 -10 -98 -63 -98 -96 0 -35 13 -45 78 -59 64 -13 391 -15 412 -1 9 5 17 5 20 0 3 -5 111 -12 240 -16 195 -5 242 -4 277 9 36 12 85 13 320 6 153 -4 316 -13 363 -19 103 -14 234 -6 314 19 43 13 96 19 195 20 147 2 170 5 216 30 24 12 79 17 275 21 220 5 252 8 309 29 82 29 114 22 165 -36 76 -86 144 -102 324 -73 75 11 94 11 180 -6 81 -15 145 -19 387 -19 160 0 304 3 320 7 17 4 33 7 37 7 16 2 48 46 48 67 0 40 -31 63 -102 76 l-68 13 0 37 c0 21 4 38 9 38 24 0 41 71 41 170 0 69 7 130 22 192 21 91 21 92 2 127 -15 29 -37 45 -109 81 l-90 45 -10 52 c-8 43 -18 58 -59 94 -40 35 -57 44 -90 44 -23 1 -54 8 -71 17 -16 8 -56 20 -88 27 -69 15 -68 14 -91 161 -15 96 -15 110 0 160 54 188 54 205 4 613 -70 572 -69 556 -72 1542 -3 748 -3 1693 -1 2235 1 117 9 190 43 385 62 349 100 617 125 870 8 88 24 194 36 235 29 111 34 230 15 450 -8 107 -20 263 -26 345 -6 83 -17 179 -26 215 -8 36 -19 135 -23 220 -5 86 -14 182 -21 214 -13 65 -43 140 -58 150 -6 3 -8 14 -5 25 3 13 -6 24 -32 40 -28 16 -35 26 -30 39 17 40 15 53 -14 108 -35 67 -37 97 -15 194 19 86 10 120 -46 175 -47 46 -54 64 -78 211 -23 131 -42 176 -89 205 -18 12 -61 60 -93 108 -93 134 -139 191 -166 203 -15 7 -24 20 -24 34 0 12 -7 24 -15 28 -26 9 -17 23 30 45 25 12 45 26 45 31 0 5 21 21 48 34 109 55 281 210 380 342 103 137 184 315 212 465 6 28 16 57 24 63 22 17 36 107 36 229 -1 146 -13 238 -39 287 -12 23 -21 55 -21 73 0 20 -20 72 -48 129 -195 384 -479 633 -863 756 -179 58 -278 74 -474 77 -99 2 -207 0 -240 -6z m432 -65 c299 -44 582 -179 806 -384 85 -77 183 -204 225 -290 20 -41 43 -86 52 -100 9 -14 17 -36 18 -49 0 -13 12 -47 25 -75 14 -28 32 -76 42 -106 9 -30 20 -59 24 -65 20 -26 -29 -427 -65 -532 -101 -302 -325 -581 -572 -714 -35 -19 -73 -39 -85 -46 -36 -20 -70 11 -92 85 -5 16 -2 22 10 22 30 0 100 42 203 123 210 164 342 338 414 546 47 139 62 360 33 523 -98 566 -583 942 -1245 965 -548 19 -945 -204 -1154 -649 -114 -240 -154 -494 -111 -700 18 -86 71 -202 118 -261 67 -82 70 -111 20 -159 l-28 -27 -47 56 c-135 161 -196 382 -185 667 12 323 109 543 336 766 184 180 383 297 626 366 185 53 434 68 632 38z m13 -139 c184 -32 390 -117 536 -221 159 -114 315 -304 384 -472 122 -292 119 -622 -8 -880 -71 -143 -182 -261 -396 -419 -144 -107 -152 -111 -174 -90 -13 14 -17 35 -17 100 1 179 4 190 140 462 138 278 175 378 182 505 6 101 -7 173 -47 257 -15 34 -26 63 -24 66 8 7 -29 77 -40 78 -6 0 -32 28 -57 62 -63 86 -155 158 -284 222 -160 79 -240 99 -385 92 -63 -3 -142 -12 -175 -21 -157 -44 -356 -156 -484 -273 -163 -147 -281 -373 -281 -536 0 -34 -4 -47 -14 -47 -8 0 -17 -7 -20 -16 -5 -13 -44 -287 -50 -354 -3 -30 -39 -101 -59 -118 -16 -14 -44 13 -94 88 -71 109 -98 214 -97 380 2 182 41 344 129 526 181 376 477 569 965 628 63 8 283 -4 370 -19z m4 -290 c94 -24 252 -107 344 -180 80 -64 149 -147 144 -172 -4 -19 27 -85 37 -79 5 3 23 -33 41 -81 27 -75 31 -100 31 -182 -1 -156 -33 -247 -176 -496 -97 -168 -136 -266 -185 -465 -47 -188 -71 -311 -78 -405 -5 -61 -11 -90 -21 -93 -11 -4 -12 20 -6 139 9 165 41 312 126 572 45 138 60 168 106 230 115 153 193 363 193 517 0 133 -48 251 -110 272 -19 6 -52 22 -73 36 l-38 26 -122 -12 c-309 -29 -493 -126 -797 -420 -105 -100 -138 -128 -125 -102 35 68 114 177 224 308 61 74 111 136 111 139 0 13 -80 -11 -127 -38 -29 -16 -55 -29 -58 -29 -8 0 22 45 72 110 44 57 44 78 0 61 -34 -13 -42 0 -23 38 24 46 63 87 95 100 15 7 34 24 40 37 10 24 10 25 -11 19 -13 -4 -66 -27 -119 -52 -88 -41 -99 -49 -128 -98 -40 -66 -67 -136 -91 -239 -24 -101 -109 -615 -117 -705 -3 -45 -13 -77 -28 -101 -13 -19 -26 -45 -29 -57 -14 -47 -33 -188 -26 -193 4 -3 4 -32 -1 -65 -9 -62 -6 -100 13 -149 10 -26 13 -27 19 -10 5 10 6 58 2 105 -6 89 4 129 32 129 11 0 15 -12 15 -47 0 -54 20 -178 44 -270 9 -33 16 -79 16 -102 0 -22 8 -62 19 -88 22 -57 111 -413 140 -563 26 -134 53 -339 45 -351 -7 -11 -104 -12 -123 0 -10 7 -11 13 -1 31 22 41 -40 253 -85 290 -47 39 -45 -77 3 -187 18 -39 32 -81 32 -93 0 -19 -4 -21 -27 -15 -16 4 -28 7 -29 8 0 1 -27 79 -59 172 -31 94 -86 231 -121 306 -38 82 -64 150 -64 170 0 19 -10 50 -23 70 -87 142 -87 142 -87 201 0 33 -9 80 -20 110 -15 41 -20 79 -21 163 0 61 -4 119 -8 129 -5 12 -2 31 7 48 18 38 29 148 14 148 -10 0 -52 -115 -52 -141 0 -32 -141 -164 -210 -196 -50 -23 -59 -31 -54 -48 10 -31 43 -62 100 -95 141 -79 307 -409 400 -797 14 -57 24 -109 22 -114 -2 -6 -30 18 -63 53 -132 140 -202 205 -238 222 -21 10 -40 16 -42 14 -1 -1 26 -66 62 -143 62 -135 123 -297 123 -328 0 -11 -16 -8 -80 14 -45 16 -127 38 -183 50 -163 34 -262 16 -327 -58 l-34 -38 115 -6 c146 -8 141 -8 159 -19 12 -8 -4 -28 -82 -103 -69 -66 -99 -102 -105 -127 -7 -26 -6 -36 3 -38 6 -2 53 13 103 32 50 20 95 36 101 36 10 0 -106 -205 -170 -300 -20 -30 -40 -73 -44 -94 -4 -22 -29 -83 -56 -136 -27 -53 -55 -124 -64 -156 -19 -78 -66 -543 -67 -670 0 -54 -4 -135 -9 -179 -23 -209 -34 -672 -21 -977 13 -334 24 -450 44 -482 9 -14 11 -33 6 -61 -13 -66 -10 -160 4 -179 13 -18 14 -18 21 0 4 10 9 77 12 147 2 71 6 133 9 137 3 4 9 232 15 506 15 768 39 1101 81 1134 17 13 21 36 29 160 13 194 17 225 51 440 39 235 45 256 120 392 49 90 81 133 154 208 51 52 100 107 109 122 10 14 36 35 60 46 23 11 54 36 69 55 18 24 59 52 127 86 108 55 150 62 201 36 l30 -16 -78 -58 c-96 -71 -167 -146 -261 -273 -56 -75 -88 -134 -146 -265 -105 -239 -142 -366 -150 -508 -1 -33 -13 -107 -25 -164 -12 -57 -20 -111 -18 -120 6 -29 38 60 60 167 12 59 25 102 32 102 7 0 17 19 24 42 7 23 24 67 38 97 23 53 25 55 39 37 17 -24 18 -64 2 -175 -9 -59 -9 -86 -2 -88 7 -2 8 -21 2 -58 -10 -65 -26 -424 -20 -442 8 -23 20 -14 26 20 3 17 10 127 16 242 9 170 14 218 30 250 10 22 24 76 29 120 11 86 23 129 40 140 7 4 11 -8 11 -35 0 -22 7 -103 16 -178 10 -84 14 -170 10 -222 -19 -277 -18 -323 5 -490 20 -151 22 -209 24 -685 3 -554 15 -876 41 -1095 21 -167 23 -510 5 -673 -8 -65 -11 -121 -7 -124 12 -13 45 30 67 89 12 33 56 108 97 166 141 199 196 332 208 502 9 118 -8 238 -62 430 -35 130 -47 191 -53 285 -5 66 -15 139 -24 161 -8 23 -20 104 -27 180 -16 202 -29 291 -50 344 -18 46 -32 130 -45 275 -4 39 -16 126 -27 195 -19 114 -20 146 -12 375 5 138 8 317 8 399 -1 144 -2 150 -25 167 -23 17 -24 21 -24 181 0 198 14 267 87 416 43 87 55 105 84 117 19 8 58 37 88 65 55 52 73 62 57 33 -18 -36 -22 -142 -11 -298 20 -291 45 -439 218 -1280 28 -132 62 -317 76 -412 15 -95 38 -209 51 -255 13 -46 29 -123 35 -172 17 -136 35 -222 101 -471 34 -126 65 -248 69 -270 5 -22 13 -58 18 -80 6 -22 16 -74 23 -115 12 -74 35 -140 51 -140 4 0 15 -26 25 -57 21 -71 23 -216 4 -293 -18 -74 -69 -184 -122 -261 -50 -74 -146 -179 -165 -179 -13 0 -74 -71 -74 -87 0 -5 -25 -33 -56 -63 -30 -30 -64 -71 -74 -90 l-18 -35 -7 28 c-6 21 -2 33 14 50 12 12 45 57 72 100 29 44 79 102 116 135 43 38 91 96 143 173 97 147 129 210 142 291 10 56 9 72 -11 136 l-22 72 -52 0 c-159 -1 -258 -65 -437 -284 -75 -90 -74 -90 -91 -135 -7 -18 -27 -51 -46 -73 -18 -22 -36 -51 -39 -64 -3 -13 -10 -24 -14 -24 -17 0 -220 -322 -220 -349 0 -5 -20 -42 -45 -82 -55 -89 -99 -201 -116 -292 -7 -37 -16 -67 -20 -67 -16 0 -49 -95 -73 -211 -34 -160 -73 -242 -160 -330 -60 -60 -290 -229 -300 -218 -2 2 0 55 5 117 5 62 13 318 19 570 5 251 17 585 26 742 15 280 14 389 -7 522 -14 90 -34 107 -43 36 -26 -226 -47 -708 -58 -1378 -5 -333 -10 -639 -11 -680 -2 -82 -10 -61 101 -273 22 -43 43 -99 47 -125 3 -26 12 -57 18 -69 9 -16 10 -50 6 -112 -8 -112 -43 -193 -120 -271 -74 -75 -133 -148 -154 -190 -10 -19 -53 -79 -97 -134 -43 -54 -93 -126 -110 -159 -17 -34 -37 -66 -44 -72 -7 -5 -42 -57 -77 -115 -35 -58 -96 -154 -136 -215 -136 -206 -229 -427 -247 -585 -4 -34 -10 -58 -14 -53 -5 4 -16 65 -26 134 -17 120 -17 134 0 325 10 109 22 208 27 219 21 47 31 170 38 471 5 177 11 327 15 333 10 15 13 1310 4 1313 -4 2 -10 172 -12 378 -2 206 -11 481 -20 610 -33 499 -46 747 -46 883 0 78 -4 159 -9 179 -5 20 -6 40 -3 43 7 6 13 158 16 350 1 115 -2 137 -23 192 -21 55 -23 74 -18 160 2 54 -2 170 -10 258 -18 188 -12 331 18 460 17 76 22 141 28 415 9 350 12 373 85 698 25 114 42 164 64 200 17 26 72 132 122 237 50 104 111 219 134 255 24 36 46 78 50 93 4 16 18 46 31 68 32 49 33 74 5 59 -35 -19 -26 0 80 168 38 60 35 78 -6 33 -15 -17 -32 -31 -37 -31 -20 0 4 73 47 143 51 82 71 127 56 127 -6 0 -17 -8 -25 -17 -7 -10 -23 -29 -34 -43 -15 -19 -20 -21 -21 -9 0 9 7 22 15 29 17 14 21 35 5 25 -21 -13 -1 68 41 164 17 41 19 55 10 61 -10 6 -10 9 -1 15 10 6 10 9 0 15 -20 12 -3 61 51 146 28 44 53 91 56 107 3 15 19 37 37 49 47 32 116 100 110 109 -2 4 23 27 57 49 33 23 133 111 222 196 143 137 166 164 204 236 23 45 49 88 59 97 15 15 16 12 10 -47 -5 -51 -3 -64 10 -69 27 -10 47 22 46 74 -4 192 -3 282 5 375 5 65 5 109 -1 111 -14 5 50 197 98 293 122 244 415 468 688 528 88 19 256 20 332 1z m324 -586 c7 -24 38 -106 69 -181 l54 -138 -22 -32 c-12 -18 -24 -34 -25 -36 -1 -2 -13 3 -26 11 -12 9 -49 19 -81 22 -53 7 -59 6 -55 -10 2 -13 25 -24 75 -39 l73 -22 -21 -33 -20 -33 -22 20 c-28 26 -88 52 -121 52 -45 0 -105 -31 -125 -64 -11 -17 -31 -71 -44 -120 -33 -117 -40 -123 -95 -87 -23 16 -56 34 -72 40 -27 9 -30 8 -30 -10 0 -48 34 -77 105 -90 79 -15 101 5 124 111 26 114 59 165 116 176 32 6 105 -22 120 -46 13 -21 -43 -21 -83 -1 -52 27 -72 27 -72 1 0 -42 28 -79 62 -82 41 -4 47 -31 20 -85 -21 -41 -130 -148 -186 -183 -19 -11 -48 -36 -65 -55 -17 -19 -36 -35 -44 -35 -7 0 -32 -18 -55 -40 -52 -50 -160 -94 -206 -84 -17 3 -66 17 -108 31 -59 19 -78 30 -78 43 0 10 -21 37 -47 60 -79 69 -110 115 -144 217 l-31 95 23 42 c13 22 33 75 45 116 17 59 27 78 47 88 14 7 42 39 61 71 49 80 165 188 252 234 63 32 81 37 140 37 83 0 208 21 352 59 59 16 111 28 116 27 6 -1 16 -22 24 -47z m-100 -531 c18 -18 15 -28 -8 -28 -10 0 -24 9 -30 20 -9 17 -8 20 8 20 10 0 23 -5 30 -12z m-114 -378 c4 -23 -3 -109 -14 -198 -11 -87 -19 -167 -18 -177 1 -11 -4 -54 -11 -95 -8 -43 -11 -102 -8 -141 7 -77 -1 -93 -67 -138 l-43 -30 -7 52 c-11 94 -6 440 8 547 8 58 12 107 10 109 -2 2 17 19 44 36 26 18 56 42 66 54 27 29 33 27 40 -19z m-592 -165 c29 -14 74 -28 101 -31 52 -7 54 -10 32 -34 -8 -9 -16 -25 -18 -36 -1 -10 -10 -30 -20 -44 -34 -48 -45 -140 -18 -140 5 0 23 33 41 73 18 39 34 73 36 75 7 9 46 -22 59 -48 22 -43 19 -56 -19 -79 -79 -49 -222 -49 -336 0 l-48 20 19 72 c18 70 44 107 75 107 8 0 14 10 14 26 0 23 16 64 24 64 2 0 28 -11 58 -25z m337 -83 l-12 -66 -49 54 -48 54 38 11 c21 7 47 17 57 23 27 15 29 3 14 -76z m425 -99 c14 -21 39 -71 56 -112 37 -87 75 -150 95 -157 8 -4 24 -21 35 -39 11 -18 36 -43 55 -56 25 -17 35 -32 35 -50 0 -14 17 -50 39 -80 53 -75 65 -116 59 -213 -7 -99 -39 -195 -132 -391 -67 -143 -85 -151 -51 -25 16 59 20 140 7 140 -21 0 -51 -34 -66 -74 -17 -45 -36 -61 -36 -31 0 8 -9 24 -21 36 -19 19 -20 26 -10 82 6 34 18 108 26 165 9 57 24 140 35 185 26 109 26 181 0 214 -11 15 -18 34 -15 43 4 13 -1 19 -19 24 -13 3 -39 18 -56 33 -29 24 -35 25 -78 15 -26 -6 -48 -10 -49 -8 -1 1 7 58 18 126 10 69 22 144 25 168 4 23 11 42 15 42 5 0 20 -17 33 -37z m-774 -190 c59 -3 135 0 175 6 39 6 79 12 89 14 16 2 25 -15 54 -93 20 -58 36 -123 39 -165 l6 -70 -42 -45 c-23 -25 -50 -54 -61 -65 -10 -12 -37 -53 -60 -92 -60 -105 -67 -108 -74 -26 -21 235 -33 290 -56 253 -19 -30 -30 -86 -30 -160 0 -41 -5 -93 -11 -115 l-11 -40 -24 48 c-14 26 -45 102 -69 169 -25 66 -63 154 -85 195 -22 41 -40 85 -40 98 0 12 -7 42 -15 65 -24 69 -23 70 48 48 37 -12 104 -22 167 -25z m711 -162 c-6 -10 -51 -44 -100 -76 -91 -57 -144 -106 -156 -145 -13 -42 8 -34 59 22 56 61 179 138 221 138 14 0 43 12 65 26 22 15 43 24 47 21 8 -8 -16 -37 -31 -37 -13 0 -186 -127 -229 -168 -30 -28 -72 -100 -63 -109 2 -3 40 28 83 69 43 40 102 93 131 116 51 43 53 43 78 28 24 -16 24 -17 7 -40 -10 -13 -38 -36 -62 -52 -116 -73 -178 -142 -195 -216 -12 -54 21 -30 87 61 18 25 67 68 109 97 71 49 77 52 83 33 5 -16 -14 -39 -99 -120 -123 -117 -210 -237 -201 -278 4 -19 -3 -40 -25 -75 -17 -26 -42 -77 -56 -112 -29 -70 -60 -106 -119 -136 -79 -41 -115 -71 -173 -147 -33 -42 -69 -85 -81 -95 -21 -19 -21 -19 -21 5 0 13 -13 81 -29 152 -15 70 -24 127 -20 127 15 0 91 121 135 214 23 50 57 134 74 188 26 79 35 97 54 102 21 5 24 14 30 74 7 66 9 70 59 118 29 28 60 53 70 57 9 3 17 12 17 20 0 7 15 20 33 29 18 9 48 28 66 44 38 32 129 83 149 84 9 0 10 -5 3 -19z m92 -506 c-8 -33 -17 -91 -19 -130 -18 -335 -28 -405 -76 -482 -22 -37 -63 -69 -99 -77 -22 -6 -26 -1 -46 56 -12 35 -29 83 -38 107 -9 24 -15 60 -13 80 l3 36 17 -37 c16 -36 61 -69 75 -55 3 4 -3 37 -14 74 l-20 67 34 44 c46 61 57 83 98 208 20 59 50 135 67 168 l31 61 8 -30 c6 -19 3 -50 -8 -90z m470 28 c30 -58 37 -114 22 -178 -7 -33 -16 -79 -18 -103 -6 -49 -15 -65 -86 -145 -28 -32 -60 -76 -71 -98 l-20 -39 21 0 c21 0 27 6 101 98 84 106 108 138 130 177 l23 40 3 -58 c4 -77 -19 -153 -63 -204 -19 -23 -35 -46 -35 -52 0 -24 39 -9 73 29 42 47 77 54 77 14 0 -30 -13 -56 -51 -105 -32 -41 -36 -59 -14 -59 8 0 15 -4 15 -10 0 -16 -17 -12 -71 16 -32 16 -79 28 -130 34 -123 14 -215 73 -234 150 -5 22 1 30 39 57 46 33 107 115 144 196 13 26 44 109 69 185 37 109 48 131 53 112 4 -14 14 -39 23 -57z m-1358 -383 c-3 -5 -15 -10 -26 -10 -11 0 -17 5 -14 10 3 6 15 10 26 10 11 0 17 -4 14 -10z m84 -186 c11 -60 25 -122 31 -139 21 -51 23 -164 5 -214 -24 -70 -93 -147 -112 -127 -11 10 -32 274 -33 398 l0 126 42 36 c24 19 44 34 45 32 2 -1 11 -52 22 -112z m906 -27 c56 -56 65 -107 65 -380 0 -226 1 -243 24 -310 19 -56 25 -101 29 -202 3 -71 13 -188 23 -260 15 -117 16 -154 5 -365 -11 -199 -10 -274 3 -490 22 -354 34 -668 46 -1135 6 -219 19 -511 30 -648 11 -137 20 -340 20 -451 0 -335 -31 -795 -65 -973 -8 -43 -24 -152 -36 -243 -25 -208 -90 -529 -128 -640 -20 -56 -35 -129 -45 -214 -11 -96 -21 -142 -40 -181 -14 -28 -26 -68 -26 -88 0 -24 -10 -51 -29 -79 -27 -39 -31 -57 -47 -198 -12 -115 -25 -182 -51 -262 -44 -140 -56 -277 -51 -588 5 -257 19 -350 80 -536 30 -94 81 -194 98 -194 5 0 14 19 20 42 8 27 33 65 73 110 74 82 132 175 152 242 15 49 20 180 9 209 -8 21 -56 -35 -119 -138 -55 -88 -110 -154 -120 -143 -33 33 -46 296 -21 428 17 89 59 221 85 270 l19 35 12 -30 c7 -16 26 -104 44 -195 l32 -165 18 27 c32 48 45 116 56 283 7 122 7 170 -2 189 -8 20 -8 50 1 128 9 68 10 159 6 273 -8 201 6 511 35 755 11 96 31 355 45 575 34 534 49 689 82 810 25 93 22 450 -8 810 -23 273 -24 331 -22 995 1 662 13 1147 30 1285 5 33 5 121 1 195 -4 74 -12 248 -17 385 -8 238 -11 261 -56 489 -41 211 -92 430 -111 481 -11 27 27 3 58 -37 66 -86 114 -219 129 -358 13 -116 24 -147 60 -165 15 -8 30 -15 33 -15 3 0 10 19 16 41 11 40 6 298 -6 357 -3 13 -35 56 -71 95 -37 39 -63 72 -57 74 15 5 167 -67 181 -86 6 -9 21 -53 33 -99 26 -97 24 -131 -17 -337 l-26 -130 2 -1205 c2 -1175 10 -1665 32 -1940 16 -195 14 -363 -7 -540 -21 -179 -21 -259 -12 -1235 7 -822 16 -1036 47 -1145 17 -59 23 -123 31 -301 6 -124 15 -241 20 -260 19 -66 12 -123 -25 -200 -19 -41 -35 -78 -35 -84 -1 -5 -41 -57 -91 -115 -119 -138 -170 -222 -214 -354 -20 -60 -43 -120 -52 -133 -9 -13 -56 -44 -104 -68 -109 -55 -149 -99 -149 -165 0 -38 5 -51 30 -75 38 -36 124 -46 184 -21 30 13 37 13 33 2 -3 -7 0 -19 6 -25 9 -9 -5 -28 -55 -78 l-67 -66 -71 57 c-39 32 -76 70 -81 84 -6 15 -28 50 -50 79 -22 28 -46 73 -53 100 -7 26 -31 76 -53 110 -22 33 -57 108 -78 165 -21 56 -67 179 -102 272 -78 205 -105 312 -97 381 4 34 1 62 -9 87 -32 77 -76 386 -102 718 -23 298 -23 301 -34 314 -6 7 -13 62 -16 122 -5 85 5 1124 18 2010 2 97 3 102 27 116 65 37 190 219 240 349 47 124 56 295 20 404 -6 18 -13 57 -15 87 -6 59 -29 148 -52 192 -18 34 -43 146 -43 191 0 16 -14 80 -31 140 -27 95 -32 133 -37 280 -4 94 -4 272 0 397 7 225 50 741 69 828 6 24 33 99 61 165 29 66 73 199 99 295 55 204 80 276 102 293 21 17 134 364 171 530 8 35 21 34 61 -6z m562 -123 c50 -17 54 -21 73 -71 11 -30 25 -75 31 -101 10 -42 30 -286 28 -337 -1 -11 1 -159 3 -330 8 -722 4 -857 -31 -1120 -46 -341 -60 -469 -52 -478 4 -4 2 -36 -5 -70 -8 -34 -19 -119 -25 -189 -7 -71 -15 -128 -18 -128 -8 0 5 633 18 855 16 261 14 356 -10 460 -32 144 -34 206 -10 330 35 176 44 381 34 730 -8 290 -10 313 -31 360 -13 28 -37 65 -55 84 -18 18 -25 31 -17 28 8 -3 39 -13 67 -23z m-727 -18 c0 -2 -20 -55 -44 -118 -24 -62 -52 -140 -62 -173 -10 -33 -26 -70 -35 -83 -10 -13 -23 -48 -30 -78 -15 -66 -19 -61 -58 66 -29 93 -44 158 -56 251 l-6 47 45 -5 c61 -7 80 -1 160 52 63 41 86 52 86 41z m-341 -288 c6 -27 11 -67 11 -88 0 -22 7 -59 15 -82 7 -24 14 -74 14 -113 0 -38 2 -77 3 -85 6 -35 -33 -276 -59 -365 -13 -46 -20 23 -15 155 8 220 8 386 -1 530 -7 121 -7 133 7 116 8 -10 20 -40 25 -68z m-318 -144 c-12 -60 -32 -132 -46 -160 -14 -28 -25 -65 -25 -81 0 -17 -9 -41 -20 -54 l-19 -24 -1 64 c0 93 19 158 106 356 26 61 28 22 5 -101z m199 8 c5 -48 10 -139 10 -202 0 -63 5 -134 10 -157 18 -78 -18 -297 -60 -363 -7 -12 -12 -12 -22 -2 -10 10 -9 22 2 60 10 31 14 80 12 142 -1 52 3 129 9 170 11 70 10 78 -10 117 -33 65 -29 143 16 343 l5 25 9 -23 c5 -13 13 -63 19 -110z m224 -126 c6 -34 5 -55 -4 -74 -15 -32 -17 -27 -23 61 -6 80 13 89 27 13z m-368 -17 c15 -24 4 -192 -21 -310 -14 -67 -25 -137 -25 -155 0 -19 -4 -34 -10 -34 -17 0 -11 198 12 358 20 143 27 167 44 141z m-246 -3248 c0 -40 30 -449 35 -478 5 -29 10 -33 36 -33 19 0 32 6 36 18 7 18 118 158 133 167 14 8 25 -99 25 -241 0 -129 0 -131 -30 -174 -16 -24 -83 -99 -149 -166 -65 -68 -129 -139 -142 -158 -13 -18 -36 -38 -51 -44 -42 -15 -88 -65 -147 -156 -29 -44 -73 -105 -99 -135 -25 -29 -53 -69 -62 -87 -9 -19 -21 -34 -27 -34 -7 0 -24 -12 -40 -27 -15 -14 -30 -24 -33 -22 -2 3 0 157 5 343 5 186 8 342 5 346 -23 38 143 435 202 483 12 10 25 26 28 37 4 11 9 20 13 20 4 0 3 -168 -1 -372 -8 -364 -6 -438 13 -468 7 -12 12 -12 22 -2 8 8 12 47 13 115 0 56 10 158 23 227 17 101 73 572 87 730 4 51 61 139 86 133 10 -3 19 -13 19 -22z m89 -1357 c-14 -412 -14 -423 -2 -435 13 -13 33 117 33 216 0 41 5 77 11 80 5 4 14 18 19 31 5 13 14 24 19 24 7 0 10 -211 10 -607 0 -494 -2 -629 -15 -718 -9 -63 -19 -242 -24 -420 -5 -208 -13 -348 -25 -424 -17 -109 -17 -116 0 -164 15 -41 17 -68 12 -156 -6 -103 -27 -205 -45 -223 -6 -6 -14 21 -21 69 -6 43 -16 79 -21 81 -6 2 -10 58 -10 131 0 167 -9 251 -26 251 -8 0 -16 -10 -19 -22 -3 -13 -4 -171 -3 -353 3 -307 4 -333 23 -370 54 -107 165 -65 180 68 3 29 7 149 9 267 3 159 10 247 26 340 16 95 23 192 29 405 7 275 15 343 33 280 41 -144 61 -401 59 -783 -1 -182 3 -310 8 -321 6 -10 7 -21 4 -25 -11 -11 -14 -78 -3 -90 5 -7 7 -15 4 -18 -2 -3 -9 -52 -14 -109 -8 -99 -19 -158 -42 -224 -6 -16 -18 -51 -27 -77 -9 -26 -21 -48 -27 -48 -6 0 -17 -12 -24 -26 -18 -32 -66 -68 -84 -61 -20 8 -104 124 -139 192 -17 33 -41 94 -53 135 -41 140 -68 81 -58 -128 l6 -133 46 -37 c117 -94 126 -120 60 -174 -75 -61 -124 -68 -324 -47 -86 8 -136 9 -173 2 -31 -6 -71 -7 -103 -1 -62 10 -633 -1 -665 -13 -13 -5 -66 -6 -118 -2 -88 6 -96 8 -93 26 3 19 53 39 132 52 129 20 307 85 528 192 l157 76 40 81 c22 44 63 124 91 176 67 127 90 203 90 301 l0 79 -28 0 c-31 0 -58 -37 -82 -115 -7 -22 -30 -65 -51 -96 -24 -36 -36 -63 -33 -76 4 -14 -20 -51 -86 -134 -50 -63 -113 -136 -139 -164 -58 -60 -202 -148 -280 -170 -31 -9 -78 -22 -106 -30 -27 -8 -63 -24 -80 -35 -48 -32 -57 -36 -108 -53 l-48 -15 14 22 c8 11 47 47 88 78 56 44 82 58 107 58 18 0 49 7 70 17 20 9 41 15 46 14 23 -5 60 12 90 42 18 18 47 39 64 48 16 9 48 44 70 77 23 32 50 62 61 65 11 3 33 26 48 52 15 26 53 86 82 133 36 56 57 101 62 131 4 25 25 116 47 201 89 348 135 735 163 1380 6 146 15 267 20 268 5 2 9 34 9 70 0 65 16 252 41 494 9 85 10 127 2 152 -9 28 -8 38 3 47 8 6 27 34 44 63 44 74 114 151 130 141 11 -7 12 -70 6 -324 -3 -174 -11 -401 -17 -506 -8 -141 -8 -307 1 -645 13 -454 7 -660 -20 -775 -6 -22 -13 -141 -16 -265 -7 -288 -13 -330 -74 -460 -27 -58 -52 -123 -56 -145 -7 -39 -93 -183 -142 -237 -22 -24 -29 -26 -73 -21 -33 4 -49 2 -49 -6 0 -7 -19 -11 -50 -11 -51 0 -100 -16 -100 -33 0 -6 16 -7 37 -4 l38 7 -30 -25 c-17 -13 -38 -24 -48 -25 -21 0 -137 -61 -137 -72 0 -8 22 -12 55 -8 11 1 43 14 71 30 39 22 54 26 68 18 14 -8 46 -6 113 7 102 19 97 20 323 -30 88 -20 127 -18 180 6 53 24 51 26 -65 69 l-70 26 1 50 c1 27 15 88 33 137 17 48 44 125 61 171 16 46 33 105 36 132 3 27 16 70 30 95 32 62 43 153 37 295 -4 94 -1 150 17 264 26 170 23 239 -18 485 -26 156 -27 171 -27 560 1 268 6 477 17 635 10 129 20 321 23 425 9 285 35 388 117 472 23 24 43 41 45 40 1 -2 -2 -156 -8 -343z m-879 -229 c-5 -44 -5 -161 0 -260 10 -211 2 -299 -34 -375 -22 -47 -26 -69 -26 -150 0 -52 -7 -126 -15 -165 -8 -38 -15 -83 -15 -98 0 -41 -11 -57 -78 -110 -32 -26 -65 -59 -72 -72 -7 -14 -21 -25 -31 -25 -10 0 -24 -8 -31 -18 -7 -10 -28 -24 -45 -31 -18 -7 -43 -23 -55 -36 -13 -12 -32 -24 -43 -26 -11 -2 -24 -14 -30 -27 -5 -12 -19 -22 -30 -22 -11 0 -47 -21 -79 -45 -33 -25 -61 -43 -64 -40 -17 16 127 217 237 330 50 52 118 153 113 169 -2 5 17 30 41 55 51 52 91 126 108 198 6 27 14 200 18 395 l7 348 39 41 c41 42 75 62 87 50 3 -3 2 -42 -2 -86z m289 -401 c-7 -104 -8 -192 -2 -229 4 -33 5 -87 1 -120 -4 -33 -14 -195 -22 -360 -29 -537 -46 -728 -92 -975 -28 -152 -68 -317 -90 -368 -8 -19 -14 -47 -14 -63 0 -16 -4 -29 -10 -29 -5 0 -25 -31 -45 -69 -33 -67 -51 -89 -62 -78 -3 3 -9 43 -14 88 -5 46 -14 86 -20 89 -6 4 -6 30 0 76 51 361 122 1241 106 1321 -10 51 -6 169 7 218 6 22 10 92 10 155 -1 63 3 132 9 152 5 20 33 71 62 113 28 42 70 105 92 140 39 61 85 118 92 112 1 -2 -2 -79 -8 -173z m-309 -721 c-3 -213 -23 -579 -40 -703 -53 -399 -71 -571 -68 -638 2 -39 0 -72 -4 -72 -5 0 -8 -79 -8 -176 0 -203 -2 -209 -93 -287 l-52 -45 3 202 c2 111 9 232 17 271 7 39 18 126 25 195 6 69 20 175 30 235 28 165 33 255 21 420 -7 83 -16 219 -22 303 l-10 152 32 28 c18 15 59 53 92 85 32 31 62 57 68 57 5 0 9 -12 9 -27z m-266 -418 c9 -110 18 -282 21 -383 2 -100 6 -186 8 -190 2 -4 -9 -101 -24 -217 -16 -115 -29 -224 -29 -242 0 -17 -7 -39 -15 -47 -21 -21 -36 -157 -28 -255 5 -69 3 -81 -15 -107 -12 -16 -23 -45 -24 -64 -3 -33 -7 -36 -63 -57 -33 -12 -61 -19 -63 -14 -3 9 -122 -4 -171 -20 -20 -6 -103 -41 -184 -78 -141 -63 -147 -67 -142 -91 4 -14 8 -27 11 -29 2 -2 38 3 79 12 92 21 135 21 160 3 17 -13 16 -15 -23 -41 -23 -15 -42 -34 -42 -41 0 -11 -38 -14 -205 -14 -113 0 -205 4 -205 8 0 4 6 20 13 35 10 23 18 27 53 27 26 0 47 6 55 16 7 9 66 57 131 106 234 178 247 212 268 673 23 516 66 1015 88 1015 7 0 42 21 78 46 l64 46 0 -84 c0 -128 -18 -519 -30 -658 -28 -318 -84 -624 -150 -814 -11 -33 -20 -63 -20 -68 0 -16 29 -8 123 33 l95 42 6 111 c3 61 10 235 16 386 14 350 64 1097 74 1107 5 6 71 50 73 49 1 -1 9 -91 17 -201z m-585 -585 c-7 -47 -11 -132 -10 -190 2 -84 -4 -137 -29 -265 -42 -210 -51 -302 -39 -399 8 -66 7 -82 -6 -103 -16 -23 -71 -63 -89 -63 -15 0 0 424 20 542 15 91 16 113 4 147 -8 25 -10 58 -6 93 4 29 10 105 14 169 l8 116 61 91 c34 50 65 101 70 114 14 38 15 -157 2 -252z m2116 -85 c9 -44 21 -88 26 -97 7 -13 -1 -41 -32 -105 -40 -82 -43 -86 -50 -60 -4 15 -5 114 -2 219 6 188 6 190 23 157 10 -19 25 -70 35 -114z m125 -372 l22 -83 -73 -112 c-69 -105 -118 -215 -119 -263 0 -20 4 -21 84 -13 46 4 123 14 172 22 132 24 124 27 168 -66 22 -45 40 -98 40 -117 1 -43 2 -42 -244 -76 -102 -14 -219 -34 -260 -45 -282 -70 -367 -66 -235 9 133 76 180 91 329 101 124 8 216 30 216 50 0 15 -63 30 -124 30 -54 0 -113 -7 -223 -25 -27 -5 -33 -3 -33 12 0 10 6 27 14 38 7 11 17 31 21 45 4 14 19 50 32 80 32 71 46 165 38 260 -6 65 -4 78 13 100 11 14 38 63 62 109 l42 84 18 -29 c10 -16 28 -66 40 -111z m1392 67 c40 -39 40 -41 36 -102 -3 -54 -11 -76 -57 -155 -46 -80 -60 -96 -108 -125 -71 -42 -110 -91 -119 -147 l-7 -44 78 54 c126 87 209 171 250 251 19 39 35 79 35 89 0 26 6 24 60 -21 56 -47 72 -81 68 -141 -3 -42 -4 -43 -50 -55 -129 -33 -248 -110 -419 -271 -63 -59 -127 -118 -142 -130 -53 -44 -22 -57 55 -24 24 11 85 49 137 85 52 36 101 66 108 66 7 0 41 25 74 56 65 59 146 104 192 104 24 0 27 -4 27 -32 -1 -46 -31 -109 -68 -140 -47 -39 -174 -106 -218 -114 -42 -7 -109 -38 -119 -54 -10 -15 55 -12 111 6 75 24 108 25 248 8 151 -17 160 -21 140 -49 -14 -19 -26 -20 -302 -20 -158 0 -326 4 -374 8 l-86 9 -4 41 c-4 35 0 47 24 75 32 37 35 52 12 52 -13 0 -182 -152 -205 -184 -12 -15 -132 0 -174 22 -59 32 -81 54 -88 88 -4 23 -1 36 11 47 102 89 167 171 196 244 13 32 35 78 50 103 15 26 26 60 26 82 0 56 15 85 61 115 23 16 67 51 98 79 31 28 76 62 101 74 61 31 178 70 209 70 14 0 33 5 41 10 28 18 52 10 92 -30z m141 -767 c-7 -2 -19 -2 -25 0 -7 3 -2 5 12 5 14 0 19 -2 13 -5z" />
        <path d="M2980 12064 c-37 -31 -66 -85 -80 -149 -17 -75 0 -72 34 7 18 40 47 95 64 121 37 52 30 60 -18 21z" />
        <path
            d="M2746 11729 c-2 -8 -21 -64 -40 -125 -41 -123 -52 -197 -38 -234 8 -21 11 -17 24 40 8 36 30 121 47 189 23 86 29 127 22 134 -7 7 -12 6 -15 -4z" />
        <path
            d="M2780 11515 c-7 -9 -17 -58 -21 -110 -8 -96 -16 -122 -43 -145 -9 -7 -16 -24 -16 -37 0 -14 -11 -38 -24 -53 -18 -22 -25 -46 -30 -107 -9 -100 -21 -145 -51 -188 -12 -19 -26 -58 -30 -85 -4 -28 -10 -50 -14 -50 -12 0 -29 -108 -19 -122 4 -7 8 -26 8 -42 0 -16 9 -48 19 -70 10 -23 21 -69 24 -103 3 -35 15 -83 28 -109 18 -38 31 -51 75 -71 48 -22 58 -32 89 -91 20 -37 49 -83 65 -102 l29 -35 -5 45 c-8 71 -43 180 -75 237 -16 28 -62 94 -101 145 -49 64 -77 111 -89 150 -9 31 -13 58 -9 60 4 2 15 49 23 106 14 96 17 105 50 137 52 51 103 163 139 308 29 119 31 133 20 186 -7 32 -12 81 -12 109 0 54 -8 63 -30 37z" />
        <path
            d="M1780 9223 c-69 -40 -89 -62 -130 -143 -21 -42 -59 -99 -84 -127 -53 -59 -76 -107 -76 -159 0 -31 -35 -189 -91 -409 -5 -22 -14 -134 -20 -250 -5 -115 -16 -266 -24 -335 -8 -69 -16 -239 -17 -380 -3 -243 -2 -258 20 -318 20 -55 22 -81 22 -236 0 -106 4 -177 10 -181 6 -3 10 -36 10 -73 0 -76 11 -105 32 -84 8 8 13 41 14 90 0 42 10 138 22 212 11 74 28 196 37 270 23 192 42 301 72 410 33 120 33 192 -2 370 -50 252 -44 531 15 681 18 46 19 54 6 68 -13 14 -12 26 5 99 24 104 58 171 152 300 77 105 102 168 80 206 -7 13 -14 12 -53 -11z" />
        <path
            d="M2386 6504 c-4 -10 -9 -353 -13 -763 -3 -411 -7 -749 -10 -754 -15 -25 -23 -289 -14 -503 9 -232 9 -243 -15 -383 -13 -79 -22 -146 -20 -148 8 -8 45 58 56 97 5 19 14 85 20 145 5 61 14 135 19 165 5 30 8 524 7 1098 -2 1004 -5 1111 -30 1046z" />
        <path
            d="M3428 11594 c-22 -7 -23 -30 -2 -38 9 -3 42 -6 74 -6 52 0 65 -5 131 -48 74 -48 109 -66 109 -56 0 13 -31 61 -52 81 -51 48 -197 86 -260 67z" />
        <path
            d="M3475 11463 c-27 -7 -55 -33 -55 -51 0 -23 59 -71 95 -78 19 -3 39 -12 46 -20 24 -29 89 -9 89 28 0 30 -38 86 -68 102 -34 17 -81 25 -107 19z m83 -59 c33 -23 29 -45 -7 -34 -43 12 -72 30 -66 41 9 14 48 11 73 -7z" />
        <path
            d="M3344 10938 c9 -13 19 -30 22 -38 15 -41 35 -66 61 -79 57 -29 63 -31 79 -31 14 0 93 40 113 56 10 9 -33 56 -67 73 -41 21 -135 41 -190 41 -34 0 -34 0 -18 -22z m121 -60 c14 -6 25 -15 25 -20 0 -18 -31 -20 -55 -4 -46 30 -23 49 30 24z" />
        <path
            d="M3449 9146 c-51 -18 -97 -53 -114 -86 -8 -16 -15 -32 -15 -35 0 -6 154 99 180 122 13 11 13 13 0 13 -8 -1 -31 -7 -51 -14z" />
        <path
            d="M3986 8498 c-2 -7 -14 -42 -26 -78 -12 -36 -35 -105 -52 -155 -16 -49 -38 -112 -49 -140 -21 -53 -61 -290 -79 -464 -15 -148 -12 -383 5 -463 13 -65 32 -114 41 -106 2 3 8 74 14 159 6 85 15 181 21 214 11 64 45 152 55 142 7 -6 12 -48 58 -452 79 -696 88 -870 88 -1615 -1 -701 -1 -705 -97 -1280 -71 -428 -99 -641 -110 -825 -5 -87 -4 -98 8 -82 8 9 19 17 25 17 12 0 34 86 34 137 0 20 5 48 10 62 46 117 71 257 98 551 28 303 31 330 45 343 35 36 44 177 50 812 2 182 9 368 15 415 6 47 13 102 15 122 3 21 -1 70 -9 110 -10 50 -16 172 -20 383 -3 195 -11 366 -22 460 -13 119 -16 229 -15 530 1 390 1 386 -48 820 -11 94 -23 221 -27 283 -4 61 -11 112 -16 112 -5 0 -10 -6 -12 -12z" />
        <path
            d="M3589 4248 c-1 -197 -3 -222 -18 -273 -7 -26 -11 -149 -12 -345 0 -168 -1 -334 -1 -370 -1 -36 2 -92 7 -125 5 -43 3 -83 -9 -139 -20 -96 -20 -195 -2 -351 8 -66 17 -156 21 -200 10 -128 26 -207 52 -258 13 -27 31 -81 38 -120 21 -111 29 -124 56 -90 9 11 13 37 11 80 -2 48 4 82 24 141 55 156 52 183 -31 286 -64 80 -72 103 -87 257 -9 92 -9 141 2 230 7 63 10 134 6 159 -15 116 -18 248 -6 372 17 178 15 377 -5 453 -11 42 -15 107 -15 216 1 86 -2 174 -6 197 -14 86 -24 37 -25 -120z" />
        <path
            d="M4437 3633 c-10 -10 -8 -120 4 -230 8 -71 8 -245 0 -633 -11 -551 -19 -655 -57 -750 -17 -41 -19 -82 -19 -436 l0 -392 27 14 c53 27 112 131 168 294 l33 95 -8 375 c-16 836 -36 1162 -73 1242 -15 31 -22 72 -26 143 -12 222 -19 285 -31 285 -6 0 -15 -3 -18 -7z" />
        <path
            d="M4750 725 c-52 -52 -112 -107 -132 -121 -38 -27 -54 -58 -124 -247 -23 -64 -39 -88 -81 -128 -79 -75 -70 -108 16 -61 50 27 135 121 168 187 31 61 85 114 175 174 101 68 139 112 163 195 14 47 14 52 -3 68 -10 10 -34 21 -53 24 -32 5 -39 0 -129 -91z" />
    </g>
</svg>