<svg xmlns="http://www.w3.org/2000/svg" viewBox="0 0 32 32" fill="beige">
    <path fill-rule="evenodd"
        d="M25 18a3 3 0 1 1 0-6 3 3 0 0 1 0 6Zm2 7h-4a1 1 0 1 1 0-2h4a1 1 0 1 1 0 2Zm0 3h-4a1 1 0 1 1 0-2h4a1 1 0 1 1 0 2Zm-7-2a2 2 0 0 1-2 2H6a2 2 0 0 1-2-2V14a2 2 0 0 1 2-2h12a2 2 0 0 1 2 2v12Zm8-18h-9.254l8.772-6.035c.463-.319.595-.977.295-1.469-.299-.492-.918-.633-1.382-.314 0 0-9.61 6.635-10.422 7.125L5.569.182C5.106-.137 4.486.004 4.187.496c-.3.492-.168 1.15.295 1.469L13.254 8H4a4 4 0 0 0-4 4v16a4 4 0 0 0 4 4h24a4 4 0 0 0 4-4V12a4 4 0 0 0-4-4Zm-4 8h2v-2h-2v2Zm-7-2H7a1 1 0 0 0-1 1v10a1 1 0 0 0 1 1h10a1 1 0 0 0 1-1V15a1 1 0 0 0-1-1Z" />
</svg>