<svg xmlns="http://www.w3.org/2000/svg" xml:space="preserve" viewBox="0 0 313.233 216.023">
  <path fill="#f03"
    d="M156.452 216.023s98.126 0 122.465-6.48c13.704-3.673 24.01-14.258 27.628-27.328 6.688-23.978 6.688-74.42 6.688-74.42s0-50.117-6.688-73.88c-3.617-13.393-13.924-23.762-27.628-27.326C254.577 0 156.452 0 156.452 0S58.546 0 34.316 6.589C20.831 10.153 10.306 20.522 6.47 33.916 0 57.678 0 107.796 0 107.796s0 50.44 6.469 74.42c3.837 13.069 14.362 23.654 27.847 27.326 24.23 6.48 122.136 6.48 122.136 6.48z" />
  <path fill="#fff" d="m205.222 108.011-81.009-45.904v91.81z" />
</svg>